<svg viewBox="0 0 120 120" xmlns="http://www.w3.org/2000/svg" role="img" aria-label="Orrery mark">
  <defs>
    <linearGradient id="m_brass" x1="0" y1="0" x2="1" y2="1">
      <stop offset="0" stop-color="#F0D079" />
      <stop offset="0.5" stop-color="#C9A24B" />
      <stop offset="1" stop-color="#856427" />
    </linearGradient>
    <radialGradient id="m_hub" cx="0.4" cy="0.35" r="0.75">
      <stop offset="0" stop-color="#FCEFC4" />
      <stop offset="0.45" stop-color="#E2BC63" />
      <stop offset="1" stop-color="#9A7530" />
    </radialGradient>
    <radialGradient id="m_glow" cx="0.5" cy="0.5" r="0.5">
      <stop offset="0" stop-color="#E8C874" stop-opacity="0.0" />
      <stop offset="0.6" stop-color="#E8C874" stop-opacity="0.000" />
      <stop offset="1" stop-color="#E8C874" stop-opacity="0" />
    </radialGradient></defs>
  
    <circle cx="60" cy="60" r="52" fill="url(#m_glow)" />
    <circle cx="60" cy="60" r="47.5" fill="none" stroke="url(#m_brass)" stroke-width="2"
            stroke-opacity="0.55" stroke-dasharray="1.4 23.47" stroke-linecap="round" transform="rotate(-90 60 60)" />
    <circle cx="60" cy="60" r="46" fill="none" stroke="url(#m_brass)" stroke-width="1.3" opacity="0.85" />
    <circle cx="60" cy="60" r="33" fill="none" stroke="url(#m_brass)" stroke-width="1.3" opacity="0.92" />
    <circle cx="60" cy="60" r="20" fill="none" stroke="url(#m_brass)" stroke-width="1.3" />
    <line x1="60" y1="60" x2="70.0" y2="42.68" stroke="url(#m_brass)" stroke-width="1.1" opacity="0.8" />
    <line x1="60" y1="60" x2="28.12" y2="68.54" stroke="url(#m_brass)" stroke-width="1.1" opacity="0.7" />
    <line x1="60" y1="60" x2="95.24" y2="89.58" stroke="url(#m_brass)" stroke-width="1.1" opacity="0.5" />
    <circle cx="70.0" cy="42.68" r="3" fill="#EBCB78" />
    <circle cx="95.24" cy="89.58" r="4" fill="#D8B25A" />
    <circle cx="28.12" cy="68.54" r="6.2" fill="none" stroke="#54C7B8" stroke-width="1" opacity="0.55" />
    <circle cx="28.12" cy="68.54" r="3.6" fill="#54C7B8" />
    <circle cx="60" cy="60" r="11" fill="none" stroke="url(#m_brass)" stroke-width="1.1"
            stroke-opacity="0.55" stroke-dasharray="1 3.32" transform="rotate(-90 60 60)" />
    <circle cx="60" cy="60" r="7.6" fill="url(#m_hub)" />
    <circle cx="60" cy="60" r="7.6" fill="none" stroke="#5A4413" stroke-opacity="0.35" stroke-width="0.6" />
</svg>