<svg viewBox="0 0 580 176" xmlns="http://www.w3.org/2000/svg" role="img" aria-label="Orrery Systems Modeler - An MBSE Tool by EDA4 LLC">
  <defs>
    <linearGradient id="l_brass" x1="0" y1="0" x2="1" y2="1">
      <stop offset="0" stop-color="#D8B45C" />
      <stop offset="0.5" stop-color="#B6862F" />
      <stop offset="1" stop-color="#7A5A22" />
    </linearGradient>
    <radialGradient id="l_hub" cx="0.4" cy="0.35" r="0.75">
      <stop offset="0" stop-color="#FBE9B8" />
      <stop offset="0.45" stop-color="#D2A23F" />
      <stop offset="1" stop-color="#8A6526" />
    </radialGradient>
    <radialGradient id="l_glow" cx="0.5" cy="0.5" r="0.5">
      <stop offset="0" stop-color="#B6862F" stop-opacity="0.1" />
      <stop offset="0.6" stop-color="#B6862F" stop-opacity="0.025" />
      <stop offset="1" stop-color="#B6862F" stop-opacity="0" />
    </radialGradient></defs>
  <rect x="0" y="0" width="580" height="176" rx="20" fill="#F6F3EC" />
  <rect x="2" y="2" width="576" height="172" rx="18" fill="none" stroke="#B6862F" stroke-opacity="0.22" stroke-width="1.5" />
  <g transform="translate(26,28)">
    <circle cx="60" cy="60" r="52" fill="url(#l_glow)" />
    <circle cx="60" cy="60" r="47.5" fill="none" stroke="url(#l_brass)" stroke-width="2"
            stroke-opacity="0.55" stroke-dasharray="1.4 23.47" stroke-linecap="round" transform="rotate(-90 60 60)" />
    <circle cx="60" cy="60" r="46" fill="none" stroke="url(#l_brass)" stroke-width="1.3" opacity="0.85" />
    <circle cx="60" cy="60" r="33" fill="none" stroke="url(#l_brass)" stroke-width="1.3" opacity="0.92" />
    <circle cx="60" cy="60" r="20" fill="none" stroke="url(#l_brass)" stroke-width="1.3" />
    <line x1="60" y1="60" x2="70.0" y2="42.68" stroke="url(#l_brass)" stroke-width="1.1" opacity="0.8" />
    <line x1="60" y1="60" x2="28.12" y2="68.54" stroke="url(#l_brass)" stroke-width="1.1" opacity="0.7" />
    <line x1="60" y1="60" x2="95.24" y2="89.58" stroke="url(#l_brass)" stroke-width="1.1" opacity="0.5" />
    <circle cx="70.0" cy="42.68" r="3" fill="#EBCB78" />
    <circle cx="95.24" cy="89.58" r="4" fill="#D8B25A" />
    <circle cx="28.12" cy="68.54" r="6.2" fill="none" stroke="#1E9C8C" stroke-width="1" opacity="0.55" />
    <circle cx="28.12" cy="68.54" r="3.6" fill="#1E9C8C" />
    <circle cx="60" cy="60" r="11" fill="none" stroke="url(#l_brass)" stroke-width="1.1"
            stroke-opacity="0.55" stroke-dasharray="1 3.32" transform="rotate(-90 60 60)" />
    <circle cx="60" cy="60" r="7.6" fill="url(#l_hub)" />
    <circle cx="60" cy="60" r="7.6" fill="none" stroke="#6B4E18" stroke-opacity="0.35" stroke-width="0.6" /></g>
  
  <g font-family="'Futura','Century Gothic','Avenir Next','URW Geometric',system-ui,'Segoe UI',sans-serif">
    <text x="190" y="86" fill="#182433" font-size="49" font-weight="600" letter-spacing="8">ORRERY</text>
    <line x1="192" y1="102" x2="430" y2="102" stroke="url(#l_brass)" stroke-width="1" opacity="0.55" />
    <text x="193" y="124" fill="#9A7526" font-size="15" font-weight="500" letter-spacing="5.5">SYSTEMS MODELER</text>
    <text x="193" y="148" font-size="10.5" font-weight="500" letter-spacing="2.5"><tspan fill="#9A7526">AN MBSE TOOL</tspan><tspan fill="#C0B9A8">&#160;&#160;&#183;&#160;&#160;</tspan><tspan fill="#6B7480">BY EDA4 LLC</tspan></text>
  </g>
</svg>