<svg viewBox="0 0 580 176" xmlns="http://www.w3.org/2000/svg" role="img" aria-label="Orrery Systems Modeler - An MBSE Tool by EDA4 LLC">
  <g transform="translate(26,28)">
    <circle cx="60" cy="60" r="47.5" fill="none" stroke="#F2ECDD" stroke-width="2"
            stroke-opacity="0.5" stroke-dasharray="1.4 23.47" stroke-linecap="round" transform="rotate(-90 60 60)" />
    <circle cx="60" cy="60" r="46" fill="none" stroke="#F2ECDD" stroke-width="1.3" opacity="0.85" />
    <circle cx="60" cy="60" r="33" fill="none" stroke="#F2ECDD" stroke-width="1.3" opacity="0.9" />
    <circle cx="60" cy="60" r="20" fill="none" stroke="#F2ECDD" stroke-width="1.3" />
    <line x1="60" y1="60" x2="70.0" y2="42.68" stroke="#F2ECDD" stroke-width="1.1" opacity="0.75" />
    <line x1="60" y1="60" x2="28.12" y2="68.54" stroke="#F2ECDD" stroke-width="1.1" opacity="0.65" />
    <line x1="60" y1="60" x2="95.24" y2="89.58" stroke="#F2ECDD" stroke-width="1.1" opacity="0.5" />
    <circle cx="70.0" cy="42.68" r="3" fill="#F2ECDD" />
    <circle cx="95.24" cy="89.58" r="4" fill="#F2ECDD" />
    <circle cx="28.12" cy="68.54" r="6.2" fill="none" stroke="#F2ECDD" stroke-width="1" opacity="0.6" />
    <circle cx="28.12" cy="68.54" r="3.6" fill="#F2ECDD" />
    <circle cx="60" cy="60" r="11" fill="none" stroke="#F2ECDD" stroke-width="1.1"
            stroke-opacity="0.5" stroke-dasharray="1 3.32" transform="rotate(-90 60 60)" />
    <circle cx="60" cy="60" r="7.6" fill="#F2ECDD" /></g>
  <g font-family="'Futura','Century Gothic','Avenir Next','URW Geometric',system-ui,'Segoe UI',sans-serif">
    <text x="190" y="86" fill="#F2ECDD" font-size="49" font-weight="600" letter-spacing="8">ORRERY</text>
    <line x1="192" y1="102" x2="430" y2="102" stroke="#F2ECDD" stroke-width="1" opacity="0.6" />
    <text x="193" y="124" fill="#F2ECDD" font-size="15" font-weight="500" letter-spacing="5.5" opacity="0.92">SYSTEMS MODELER</text>
    <text x="193" y="148" fill="#F2ECDD" font-size="10.5" font-weight="500" letter-spacing="2.5" opacity="0.7">AN MBSE TOOL&#160;&#160;&#183;&#160;&#160;BY EDA4 LLC</text>
  </g>
</svg>